<?xml version="1.0" encoding="UTF-8"?>
<svg width="24" height="24" viewBox="0 0 24 24" fill="none" xmlns="http://www.w3.org/2000/svg">
    <path
        d="M12 2C8.13 2 5 5.13 5 9C5 11.38 6.19 13.47 8 14.74V17C8 17.55 8.45 18 9 18H15C15.55 18 16 17.55 16 17V14.74C17.81 13.47 19 11.38 19 9C19 5.13 15.87 2 12 2ZM14 16H10V15H14V16ZM14 14H10V13H14V14ZM14.85 11.85L14 12.37V12H10V12.37L9.15 11.85C7.8 11.03 7 10.06 7 9C7 6.24 9.24 4 12 4C14.76 4 17 6.24 17 9C17 10.06 16.2 11.03 14.85 11.85Z"
        fill="currentColor" />
    <path d="M11 20H13V22H11V20Z" fill="currentColor" />
</svg> 