<svg width="515" height="99" viewBox="0 0 515 99" fill="none" xmlns="http://www.w3.org/2000/svg">
  <path
    d="M55.7998 53.6001C55.7998 53.6001 55.9998 65.2001 64.5998 70.7001L73.1998 76.2001C73.1998 76.2001 65.6998 70.6001 64.9998 65.2001L64.2998 59.9001C64.2998 59.9001 66.4998 70.2001 73.8998 75.1001C73.8998 75.1001 72.2998 68.2001 72.4998 64.4001C72.6998 60.6001 68.8998 57.7001 64.4998 55.4001C60.0998 53.1001 56.0998 51.4001 56.1998 50.4001C56.1998 49.4001 55.8998 53.7001 55.8998 53.7001H55.7998V53.6001Z"
    fill="url(#paint0_linear_796_1893)" />
  <path
    d="M101 46.6001C101 46.6001 101.5 64.4001 89.1998 72.7001L76.8998 81.0001C76.8998 81.0001 87.4998 72.4001 88.1998 64.3001L88.7998 56.2001C88.7998 56.2001 86.3998 71.8001 75.7998 79.3001C75.7998 79.3001 77.6998 68.8001 77.0998 63.1001C76.4998 57.4001 81.8998 52.9001 88.2998 49.4001C94.5998 45.9001 100.5 43.3001 100.3 41.7001C100.1 40.1001 101.1 46.7001 101.1 46.7001L101 46.6001Z"
    fill="url(#paint1_linear_796_1893)" />
  <path
    d="M35.7002 67.5999C35.7002 67.5999 35.9002 77.9999 43.6002 82.9999L51.3002 87.8999C51.3002 87.8999 44.6002 82.7999 44.0002 78.0999L43.4002 73.2999C43.4002 73.2999 45.3002 82.4999 52.0002 86.8999C52.0002 86.8999 50.5002 80.6999 50.7002 77.2999C50.9002 73.8999 47.5002 71.2999 43.5002 69.1999C39.6002 67.1999 35.9002 65.5999 36.0002 64.6999C36.1002 63.7999 35.7002 67.5999 35.7002 67.5999Z"
    fill="url(#paint2_linear_796_1893)" />
  <path
    d="M92.1998 28.9C92.9998 31 91.8998 33.3 89.7998 34.1C87.6998 34.9 85.3998 33.8 84.5998 31.7C83.7998 29.6 85.4998 22.5 85.4998 22.5C85.4998 22.5 91.3998 26.8 92.1998 28.9Z"
    fill="url(#paint3_linear_796_1893)" />
  <path
    d="M70.9 25.7999C71.7 27.8999 70.6 30.1999 68.5 30.9999C66.4 31.7999 64.1 30.6999 63.3 28.5999C62.5 26.4999 64.2 19.3999 64.2 19.3999C64.2 19.3999 70.1 23.6999 70.9 25.7999Z"
    fill="url(#paint4_linear_796_1893)" />
  <path
    d="M51.6002 40.9C52.4002 43 51.3002 45.3 49.2002 46.1C47.1002 46.9 44.8002 45.8 44.0002 43.7C43.2002 41.6 44.9002 34.5 44.9002 34.5C44.9002 34.5 50.8002 38.8 51.6002 40.9Z"
    fill="url(#paint5_linear_796_1893)" />
  <path
    d="M48.5999 98.7001C60.4999 98.2001 71.1999 92.7001 78.8999 84.1001C73.0999 87.2001 66.4999 89.1001 59.4999 89.4001C33.8999 90.5001 12.0999 69.9001 10.9999 43.4001C10.2999 27.0001 17.5999 12.3001 29.2999 3.1001C11.9999 10.6001 0.0999359 29.5001 0.999936 51.0001C2.19994 78.4001 23.3999 99.7001 48.4999 98.6001L48.5999 98.7001Z"
    fill="#76E9C3" stroke="url(#paint6_linear_796_1893)" stroke-width="0.4" stroke-miterlimit="10" />
  <path
    d="M25.7004 34C29.3004 15.4 47.3004 3.30003 65.9004 6.90003C70.7004 7.80003 75.1004 9.80003 78.9004 12.4C74.3004 7.00003 67.9004 3.10003 60.5004 1.60003C42.9004 -1.79997 25.9004 9.60003 22.5004 27.2C20.9004 35.2 22.5004 43.2 26.3004 49.7C24.9004 44.7 24.7004 39.4 25.7004 34Z"
    fill="url(#paint7_linear_796_1893)" stroke="#76E9C3" stroke-width="0.4" stroke-miterlimit="10" />
  <path
    d="M158.9 19C163.9 19 168.8 20.8 172.4 24.3C176 27.8 177.3 32.7 177.3 37.7C177.3 45.2 174.3 52.5 168.8 57.7C165 61.2 159.9 64 154.7 64C149.5 64 141.3 59.1 141.3 57.3C141.3 55.5 141.5 56.9 141.7 56.9C142 56.9 142.5 57.6 143.4 57.9C145.6 58.7 148.1 59.1 149.9 59.1C160 59.1 167.4 48.9 167.4 39.4C167.4 29.9 163.6 27 156.6 27C149.6 27 144.4 30.9 141.1 36C139.2 38.9 138.5 42 138.5 45.4V77.3C138.5 80.7 136.7 83.2 133 83.2C129.3 83.2 127.9 81.1 127.9 77.3V25.3C127.9 22.1 127.9 20.7 125.9 20C125.4 19.8 125 19.7 125 19.5C125 19.1 125.8 19 127.6 19C130.6 19 135.7 19.3 137.4 22C138.1 23.1 138.4 24.2 138.4 27.8V30.6C142.9 23.8 150.5 19 158.8 19H158.9Z"
    fill="url(#paint8_linear_796_1893)" />
  <path
    d="M188.8 22.7C188.8 19.8 188.8 17.8 187.5 17.2C187 17 186.1 16.6 186.1 16.5C186.1 16.1 186.8 16 188.7 16C191.7 16 196.5 16.1 198.3 19C199 20.1 199.4 21.2 199.4 24.8V62.7C199.4 66.9 199.4 71.5 201.4 75.4C202.9 78.1 205.1 80.8 207.9 82C208.1 82 208.2 82.2 208.2 82.3C208.2 82.6 208 82.7 207.7 82.7C202.6 82.7 197.2 81.5 193.5 77.8C189.3 73.8 188.8 67.4 188.8 61.8V22.7Z"
    fill="url(#paint9_linear_796_1893)" />
  <path
    d="M228.8 80.9C218.3 80.9 211.8 70.5 211.8 61C211.8 51.5 221.5 38 234.3 38C247.1 38 246.6 41.2 249.8 47.4C251 49.7 252.1 52.8 252.1 55.2C252.1 57.6 252.1 56.8 251.5 56.8C250.9 56.8 251 56 250.4 54.7C250 53.9 249.3 52.9 248.8 52.4C245.8 48.8 241.4 46.3 236.4 46.3C227.8 46.3 220.1 53.6 220.1 62.4C220.1 71.2 224.5 73.1 230.9 73.1C237.3 73.1 240.8 71 240.8 66.3V65.3C240.8 61.7 243.1 58.4 246.9 58.4C250.7 58.4 252.5 61.4 252.6 65C252.6 69.4 252.9 73.7 255.2 77.5C256.4 79.5 257.6 80.6 259.4 81.9C259.7 82.1 260.6 82.6 260.6 82.7C260.6 83 260.1 83 259.8 83C253.9 83 247.1 80.6 243.8 75.3C239.6 78.7 234.1 81 228.7 81L228.8 80.9Z"
    fill="url(#paint10_linear_796_1893)" />
  <path
    d="M289.4 38.1001C296.4 38.1001 302.9 43.5001 304.7 50.0001C305.5 52.9001 305.6 56.7001 305.6 60.4001V64.3001C305.6 69.1001 305.9 73.7001 308.8 78.1001C309.8 79.8001 310.9 80.4001 312.5 81.5001C313.1 81.9001 313.6 82.2001 313.6 82.3001C313.6 82.7001 313.2 82.7001 312.8 82.7001C307.8 82.7001 302.4 81.4001 298.9 77.8001C295.1 74.2001 294.2 68.7001 294.2 63.7001V57.6001C294.2 52.1001 293.9 44.8001 286.5 44.8001C279.1 44.8001 278.4 52.2001 278.4 57.8001V74.5001C278.4 77.9001 276.7 80.4001 273 80.4001C269.3 80.4001 267.8 77.7001 267.8 74.5001V44.5001C267.8 42.2001 267.8 39.9001 266.7 39.4001C266.1 39.1001 265 38.8001 265 38.6001C265 38.2001 265.8 38.1001 267.6 38.1001C270.4 38.1001 273.7 38.4001 276.1 39.9001C277.4 40.7001 278.1 41.9001 278.3 43.3001C281 40.2001 285 38.2001 289.2 38.2001H289.4V38.1001Z"
    fill="url(#paint11_linear_796_1893)" />
  <path
    d="M343.6 71.8C349 71.8 355.1 68.1 355.1 62.2C355.1 56.3 348.6 53.6 343.6 52C334.3 48.9 324.1 45.6 324.1 34.6C324.1 23.6 334.7 18 344.1 18C353.5 18 365.7 22.1 365.7 31.5C365.7 40.9 363.3 37.6 359.8 37.6C356.3 37.6 353.9 34.9 353.7 30.9C353.5 26.3 350.9 23.5 346.1 23.5C341.3 23.5 335.6 28.2 335.6 34.5C335.6 40.8 338.9 43.6 344.5 45.1C353.9 47.6 367.2 52.4 367.2 64.5C367.2 76.6 364.3 74.3 360.4 77.6C355.6 81.3 349.6 83.1 343.6 83.1C333.4 83.1 323.1 77.8 323.1 66.4C323.1 55 325.6 56 326.3 56C327 56 326.7 56 326.7 56.4C326.7 57 326.4 58.5 326.4 58.9C326.4 67.3 336.2 71.9 343.6 71.9V71.8Z"
    fill="url(#paint12_linear_796_1893)" />
  <path
    d="M398.4 41C404.5 41 411.6 44.8 411.6 51.6C411.6 58.4 399.8 64.6 393.2 64.6C386.6 64.6 391.2 64.6 391.2 64.1C391.2 63.6 391.4 63.8 391.9 63.7C396.5 62.8 400.5 59.3 400.5 54.3C400.5 49.3 398.8 49.3 396 49.3C388.5 49.3 383.4 57 383.4 63.8C383.4 70.6 387.9 75.1 394.7 75.1C401.5 75.1 409.1 70.9 411.3 65.3C411.4 65 411.7 64.3 411.9 64.3C412.4 64.3 412.5 65.1 412.5 66.8C412.5 77.3 402.9 83.6 393.1 83.6C383.3 83.6 374.3 75.2 374.3 64.3C374.3 53.4 385.8 41.2 398.3 41.2V41H398.4Z"
    fill="url(#paint13_linear_796_1893)" />
  <path
    d="M442.4 41C448.5 41 455.6 44.8 455.6 51.6C455.6 58.4 443.8 64.6 437.2 64.6C430.6 64.6 435.2 64.6 435.2 64.1C435.2 63.6 435.4 63.8 435.9 63.7C440.5 62.8 444.5 59.3 444.5 54.3C444.5 49.3 442.8 49.3 440 49.3C432.5 49.3 427.4 57 427.4 63.8C427.4 70.6 431.9 75.1 438.7 75.1C445.5 75.1 453.1 70.9 455.3 65.3C455.4 65 455.7 64.3 455.9 64.3C456.4 64.3 456.5 65.1 456.5 66.8C456.5 77.3 446.9 83.6 437.1 83.6C427.3 83.6 418.3 75.2 418.3 64.3C418.3 53.4 429.8 41.2 442.3 41.2V41H442.4Z"
    fill="url(#paint14_linear_796_1893)" />
  <path
    d="M481.3 80.4C469.3 80.4 463 70 463 59C463 48 464.9 47.7 468.9 43.7C472.3 40.3 477 38.1 481.9 38.1C486.8 38.1 493.7 44.1 493.7 44.9C493.7 45.7 493.5 45.3 493.3 45.3C493.1 45.3 492.2 44.6 490.6 43.8C488.7 43 487.5 42.8 486.3 42.8C478.8 42.8 475 51.1 475 57.6C475 64.1 478.1 72 485.5 72C492.9 72 495.7 67.4 495.7 62V22.2C495.7 19.9 495.7 17.5 494.1 17.1C493.3 16.9 492.9 16.7 492.9 16.5C492.9 16 493.8 16 495.5 16C498.5 16 503.4 16.3 505.2 19C506 20.1 506.2 20.9 506.2 24.8V62.5C506.2 66.9 506.2 71.3 508.2 75.2C509.7 77.9 511.9 80.6 514.7 81.8C514.9 81.8 515 82 515 82.1C515 82.4 514.8 82.5 514.5 82.5C507.1 82.5 499.8 79.9 497 72.5C493.4 77.4 487.6 80.3 481.5 80.3H481.3V80.4Z"
    fill="url(#paint15_linear_796_1893)" />
  <defs>
    <linearGradient id="paint0_linear_796_1893" x1="61.2998" y1="69.0001" x2="68.2998" y2="57.3001"
      gradientUnits="userSpaceOnUse">
      <stop stop-color="#98E976" />
      <stop offset="1" stop-color="#76E9C3" />
    </linearGradient>
    <linearGradient id="paint1_linear_796_1893" x1="94.1998" y1="70.1001" x2="82.8998" y2="52.3001"
      gradientUnits="userSpaceOnUse">
      <stop stop-color="#98E976" />
      <stop offset="1" stop-color="#76E9C3" />
    </linearGradient>
    <linearGradient id="paint2_linear_796_1893" x1="40.6002" y1="81.3999" x2="46.9002" y2="70.8999"
      gradientUnits="userSpaceOnUse">
      <stop stop-color="#98E976" />
      <stop offset="1" stop-color="#76E9C3" />
    </linearGradient>
    <linearGradient id="paint3_linear_796_1893" x1="83.7998" y1="29.7" x2="91.3998" y2="26.9"
      gradientUnits="userSpaceOnUse">
      <stop stop-color="#98E976" />
      <stop offset="1" stop-color="#76E9C3" />
    </linearGradient>
    <linearGradient id="paint4_linear_796_1893" x1="62.6" y1="26.5999" x2="70.2" y2="23.7999"
      gradientUnits="userSpaceOnUse">
      <stop stop-color="#98E976" />
      <stop offset="1" stop-color="#76E9C3" />
    </linearGradient>
    <linearGradient id="paint5_linear_796_1893" x1="43.3002" y1="41.7" x2="50.9002" y2="38.9"
      gradientUnits="userSpaceOnUse">
      <stop stop-color="#98E976" />
      <stop offset="1" stop-color="#76E9C3" />
    </linearGradient>
    <linearGradient id="paint6_linear_796_1893" x1="83.2999" y1="58.8001" x2="0.599939" y2="44.1001"
      gradientUnits="userSpaceOnUse">
      <stop stop-color="#98E976" />
      <stop offset="1" stop-color="#76E9C3" />
    </linearGradient>
    <linearGradient id="paint7_linear_796_1893" x1="69.7004" y1="35.7" x2="25.4004" y2="18.3"
      gradientUnits="userSpaceOnUse">
      <stop stop-color="#98E976" />
      <stop offset="1" stop-color="#76E9C3" />
    </linearGradient>
    <linearGradient id="paint8_linear_796_1893" x1="125" y1="51.1" x2="177.2" y2="51.1"
      gradientUnits="userSpaceOnUse">
      <stop stop-color="#98E976" />
      <stop offset="1" stop-color="#76E9C3" />
    </linearGradient>
    <linearGradient id="paint9_linear_796_1893" x1="186" y1="49.4" x2="208.2" y2="49.4"
      gradientUnits="userSpaceOnUse">
      <stop stop-color="#98E976" />
      <stop offset="1" stop-color="#76E9C3" />
    </linearGradient>
    <linearGradient id="paint10_linear_796_1893" x1="211.8" y1="60.5" x2="260.8" y2="60.5"
      gradientUnits="userSpaceOnUse">
      <stop stop-color="#98E976" />
      <stop offset="1" stop-color="#76E9C3" />
    </linearGradient>
    <linearGradient id="paint11_linear_796_1893" x1="265.2" y1="60.4001" x2="313.7" y2="60.4001"
      gradientUnits="userSpaceOnUse">
      <stop stop-color="#98E976" />
      <stop offset="1" stop-color="#76E9C3" />
    </linearGradient>
    <linearGradient id="paint12_linear_796_1893" x1="323" y1="50.6" x2="367.2" y2="50.6"
      gradientUnits="userSpaceOnUse">
      <stop stop-color="#98E976" />
      <stop offset="1" stop-color="#76E9C3" />
    </linearGradient>
    <linearGradient id="paint13_linear_796_1893" x1="374.3" y1="62.3" x2="412.5" y2="62.3"
      gradientUnits="userSpaceOnUse">
      <stop stop-color="#98E976" />
      <stop offset="1" stop-color="#76E9C3" />
    </linearGradient>
    <linearGradient id="paint14_linear_796_1893" x1="418.4" y1="62.3" x2="456.5" y2="62.3"
      gradientUnits="userSpaceOnUse">
      <stop stop-color="#98E976" />
      <stop offset="1" stop-color="#76E9C3" />
    </linearGradient>
    <linearGradient id="paint15_linear_796_1893" x1="462.9" y1="49.2" x2="514.8" y2="49.2"
      gradientUnits="userSpaceOnUse">
      <stop stop-color="#98E976" />
      <stop offset="1" stop-color="#76E9C3" />
    </linearGradient>
  </defs>
</svg>