<svg width="238" height="238" viewBox="0 0 238 238" fill="none" xmlns="http://www.w3.org/2000/svg">
    <rect width="238" height="238" rx="58" fill="white" />
    <path
        d="M136.232 87.3615C136.232 87.7826 136.232 88.1406 136.19 88.5618C128.692 91.7627 123.722 99.1964 123.722 108.167C123.722 110.21 123.975 112.042 124.459 113.664C119.215 118.907 112.771 122.466 105.947 122.466C105.063 122.466 103.904 122.361 102.704 122.108C100.092 118.276 98.5128 113.769 98.5128 108.42C98.5128 97.3011 106.642 87.7195 116.225 82.3074C121.721 79.2118 127.871 77.5903 134.21 76.9585C135.516 80.2015 136.253 83.8236 136.253 87.3404L136.232 87.3615Z"
        fill="url(#paint0_linear_2161_21)" />
    <path
        d="M148.678 127.646C147.415 128.91 146.109 130.005 144.698 131.1C140.654 134.343 136 137.081 131.009 138.913C126.754 140.492 122.205 141.419 117.53 141.419C117.109 141.419 116.645 141.419 116.224 141.377C108.516 137.923 102.598 133.669 98.4493 128.742C101.019 129.373 103.693 129.837 105.947 129.837C107.358 129.837 108.769 129.731 110.201 129.521C117.025 128.468 123.301 124.951 128.545 120.086C131.746 123.014 136.4 124.867 142.065 126.109C144.171 126.572 146.362 127.057 148.678 127.625V127.646Z"
        fill="url(#paint1_linear_2161_21)" />
    <path
        d="M167.864 82.8128C167.864 91.6785 165.927 100.523 162.304 108.504C160.936 106.356 160.156 103.787 160.051 100.902C159.482 92.205 153.438 86.7929 144.74 86.7929C144.382 86.7929 144.003 86.7929 143.687 86.835C143.645 83.3814 143.055 79.8646 141.96 76.6216C149.289 76.6637 159.356 78.3484 167.801 82.2232C167.843 82.4338 167.843 82.5812 167.843 82.7918L167.864 82.8128Z"
        fill="url(#paint2_linear_2161_21)" />
    <path
        d="M190.63 161.888C190.63 186.463 160.64 199.372 139.622 199.372C120.689 199.372 98.7863 190.085 98.7863 168.5C98.7863 158.855 103.609 148.937 105.715 148.937C106.284 148.937 106.6 149.253 106.6 149.884C106.6 151.674 106.284 153.759 106.284 154.959C106.284 170.585 125.786 174.776 138.106 174.776C147.709 174.776 163.062 170.838 163.062 158.582C163.062 148.937 151.942 144.535 142.086 141.861C144.55 140.45 146.909 138.829 149.226 136.996C152.006 134.785 154.617 132.427 156.934 129.815C173.445 134.68 190.651 143.188 190.651 161.888H190.63Z"
        fill="url(#paint3_linear_2161_21)" />
    <path
        d="M183.765 102.713C183.765 109.052 178.626 113.832 172.329 113.832C170.855 113.832 169.507 113.622 168.286 113.264C172.224 105.03 174.625 95.9115 175.109 86.5825C180.29 90.5205 183.765 95.8062 183.765 102.734V102.713Z"
        fill="url(#paint4_linear_2161_21)" />
    <path
        d="M175.151 86.5401C174.688 95.8691 172.266 104.988 168.328 113.221C169.528 113.579 170.897 113.79 172.371 113.79C178.668 113.79 183.807 109.01 183.807 102.671C183.807 95.7428 180.353 90.457 175.151 86.5191V86.5401ZM156.955 129.795C154.639 132.406 152.027 134.764 149.247 136.976C146.93 138.808 144.572 140.429 142.108 141.84C151.964 144.515 163.084 148.916 163.084 158.561C163.084 170.817 147.731 174.755 138.127 174.755C125.807 174.755 106.305 170.564 106.305 154.939C106.305 153.738 106.621 151.632 106.621 149.863C106.621 149.232 106.305 148.916 105.737 148.916C103.63 148.916 98.8077 158.813 98.8077 168.479C98.8077 190.085 120.731 199.351 139.644 199.351C160.662 199.351 190.652 186.463 190.652 161.867C190.652 143.146 173.466 134.659 156.934 129.795H156.955ZM134.21 76.9585C127.871 77.5902 121.742 79.2117 116.225 82.3074C106.621 87.6984 98.5128 97.3011 98.5128 108.42C98.5128 113.769 100.092 118.276 102.704 122.108C103.904 122.361 105.063 122.466 105.947 122.466C112.771 122.466 119.215 118.907 124.459 113.664C123.996 112.042 123.722 110.21 123.722 108.167C123.722 99.1964 128.692 91.7627 136.19 88.5618C136.232 88.1406 136.232 87.7826 136.232 87.3614C136.232 83.8446 135.495 80.2225 134.189 76.9795L134.21 76.9585ZM142.066 126.109C136.4 124.846 131.746 123.014 128.545 120.087C123.301 124.972 117.004 128.468 110.201 129.521C116.33 133.922 123.996 136.849 131.009 138.913C135.979 137.081 140.655 134.343 144.698 131.1C146.109 130.005 147.415 128.889 148.678 127.647C146.362 127.078 144.172 126.594 142.066 126.13V126.109ZM167.801 82.2442C159.356 78.3694 149.289 76.6847 141.96 76.6426C143.055 79.8856 143.645 83.4024 143.687 86.856C144.003 86.8139 144.361 86.8139 144.74 86.8139C153.438 86.8139 159.461 92.2049 160.051 100.923C160.156 103.808 160.936 106.377 162.305 108.525C165.927 100.565 167.864 91.6995 167.864 82.8338C167.864 82.6232 167.864 82.4758 167.822 82.2652L167.801 82.2442Z"
        fill="url(#paint5_linear_2161_21)" />
    <path
        d="M126.333 38.7792C107.211 38.7792 90.0676 50.3193 80.2535 65.9448V59.3956C80.2535 50.5931 79.5164 47.0763 76.7365 44.0438C71.7241 38.5265 61.3835 38 53.8439 38C49.337 38 47.5469 38 47.5469 38.9898C47.5469 39.5162 48.8105 39.9795 50.3268 40.506C54.3704 41.7695 54.581 45.539 54.581 54.0888V183.473C54.581 192.276 58.6246 197.793 67.154 197.793C75.6834 197.793 80.2535 191.77 80.2535 183.473V98.6489C80.2535 80.033 98.1337 57.395 117.741 57.395C126.923 57.395 134.042 62.2595 138.443 69.1878C139.328 69.1457 140.233 69.1457 141.16 69.1457C148.91 69.1457 158.514 70.6198 167.169 73.9681C163.821 53.5202 148.826 38.7792 126.333 38.7792ZM167.801 82.2442C159.356 78.3694 149.289 76.6847 141.96 76.6426C143.055 79.8856 143.645 83.4024 143.687 86.856C144.003 86.8139 144.361 86.8139 144.74 86.8139C153.438 86.8139 159.461 92.2049 160.051 100.923C160.156 103.808 160.936 106.377 162.305 108.525C165.927 100.565 167.864 91.6995 167.864 82.8338C167.864 82.6233 167.864 82.4758 167.822 82.2653L167.801 82.2442ZM142.066 126.109C136.4 124.846 131.746 123.014 128.545 120.087C123.301 124.972 117.004 128.468 110.201 129.521C108.79 129.731 107.379 129.837 105.947 129.837C103.694 129.837 101.019 129.373 98.4496 128.742C96.6595 128.278 94.9958 127.689 93.5847 127.057C90.5941 125.793 88.804 124.067 88.3407 124.067C87.8142 124.067 87.2877 124.53 87.2877 125.056C87.2877 128.468 101.609 140.682 116.225 141.356C116.646 141.398 117.109 141.398 117.53 141.398C122.206 141.398 126.755 140.45 131.009 138.892C135.979 137.06 140.655 134.322 144.698 131.079C146.109 129.984 147.415 128.868 148.678 127.626C146.362 127.057 144.172 126.573 142.066 126.109Z"
        fill="url(#paint6_linear_2161_21)" />
    <path
        d="M158.534 115.643C157.271 117.686 155.923 119.623 154.491 121.455C150.552 120.402 146.888 119.623 143.645 118.886C138.295 117.728 135.263 116.275 133.473 114.59C138.253 108.61 141.602 101.429 142.971 94.3529C143.539 94.3107 144.129 94.2476 144.761 94.2476C148.173 94.2476 152.258 95.4479 152.68 101.218C152.89 107.093 155.101 112.126 158.555 115.643H158.534Z"
        fill="url(#paint7_linear_2161_21)" />
    <path
        d="M126.333 38.7792C107.211 38.7792 90.0676 50.3193 80.2535 65.9448V59.3956C80.2535 50.5931 79.5164 47.0763 76.7365 44.0438C71.7241 38.5265 61.3835 38 53.8439 38C49.337 38 47.5469 38 47.5469 38.9898C47.5469 39.5162 48.8105 39.9795 50.3268 40.506C54.3704 41.7695 54.581 45.539 54.581 54.0888V183.473C54.581 192.276 58.6246 197.793 67.154 197.793C75.6834 197.793 80.2535 191.77 80.2535 183.473V98.6489C80.2535 80.033 98.1337 57.395 117.741 57.395C126.923 57.395 134.042 62.2595 138.443 69.1878C139.328 69.1457 140.233 69.1457 141.16 69.1457C148.91 69.1457 158.514 70.6198 167.169 73.9681C163.821 53.5202 148.826 38.7792 126.333 38.7792ZM167.801 82.2442C159.356 78.3694 149.289 76.6847 141.96 76.6426C143.055 79.8856 143.645 83.4024 143.687 86.856C144.003 86.8139 144.361 86.8139 144.74 86.8139C153.438 86.8139 159.461 92.2049 160.051 100.923C160.156 103.808 160.936 106.377 162.305 108.525C165.927 100.565 167.864 91.6995 167.864 82.8338C167.864 82.6233 167.864 82.4758 167.822 82.2653L167.801 82.2442ZM142.066 126.109C136.4 124.846 131.746 123.014 128.545 120.087C123.301 124.972 117.004 128.468 110.201 129.521C108.79 129.731 107.379 129.837 105.947 129.837C103.694 129.837 101.019 129.373 98.4496 128.742C96.6595 128.278 94.9958 127.689 93.5847 127.057C90.5941 125.793 88.804 124.067 88.3407 124.067C87.8142 124.067 87.2877 124.53 87.2877 125.056C87.2877 128.468 101.609 140.682 116.225 141.356C116.646 141.398 117.109 141.398 117.53 141.398C122.206 141.398 126.755 140.45 131.009 138.892C135.979 137.06 140.655 134.322 144.698 131.079C146.109 129.984 147.415 128.868 148.678 127.626C146.362 127.057 144.172 126.573 142.066 126.109Z"
        fill="url(#paint8_linear_2161_21)" />
    <path
        d="M154.491 121.455C152.701 123.667 150.764 125.751 148.679 127.647C146.362 127.078 144.172 126.594 142.066 126.13C136.4 124.867 131.746 123.035 128.545 120.108C130.335 118.423 131.999 116.591 133.473 114.611C135.263 116.296 138.296 117.749 143.645 118.907C146.888 119.644 150.574 120.424 154.491 121.476V121.455Z"
        fill="url(#paint9_linear_2161_21)" />
    <path
        d="M162.305 108.504C161.252 110.968 159.946 113.327 158.535 115.643C155.081 112.126 152.87 107.093 152.659 101.218C152.238 95.448 148.152 94.2477 144.74 94.2477C144.109 94.2477 143.54 94.2898 142.95 94.353C143.414 91.9944 143.687 89.6358 143.687 87.3194V86.8561C144.003 86.814 144.361 86.814 144.74 86.814C153.438 86.814 159.462 92.205 160.051 100.923C160.157 103.808 160.936 106.377 162.305 108.525V108.504Z"
        fill="url(#paint10_linear_2161_21)" />
    <defs>
        <linearGradient id="paint0_linear_2161_21" x1="98.4707" y1="99.7229" x2="136.232"
            y2="99.7229" gradientUnits="userSpaceOnUse">
            <stop stop-color="#98E976" />
            <stop offset="1" stop-color="#76E9C3" />
        </linearGradient>
        <linearGradient id="paint1_linear_2161_21" x1="98.4493" y1="130.763" x2="148.678"
            y2="130.763" gradientUnits="userSpaceOnUse">
            <stop stop-color="#98E976" />
            <stop offset="1" stop-color="#76E9C3" />
        </linearGradient>
        <linearGradient id="paint2_linear_2161_21" x1="141.96" y1="92.563" x2="167.864" y2="92.563"
            gradientUnits="userSpaceOnUse">
            <stop stop-color="#98E976" />
            <stop offset="1" stop-color="#76E9C3" />
        </linearGradient>
        <linearGradient id="paint3_linear_2161_21" x1="98.7863" y1="164.604" x2="190.63"
            y2="164.604" gradientUnits="userSpaceOnUse">
            <stop stop-color="#98E976" />
            <stop offset="1" stop-color="#76E9C3" />
        </linearGradient>
        <linearGradient id="paint4_linear_2161_21" x1="168.307" y1="100.186" x2="183.765"
            y2="100.186" gradientUnits="userSpaceOnUse">
            <stop stop-color="#98E976" />
            <stop offset="1" stop-color="#76E9C3" />
        </linearGradient>
        <linearGradient id="paint5_linear_2161_21" x1="98.5128" y1="137.986" x2="190.673"
            y2="137.986" gradientUnits="userSpaceOnUse">
            <stop stop-color="#98E976" />
            <stop offset="1" stop-color="#76E9C3" />
        </linearGradient>
        <linearGradient id="paint6_linear_2161_21" x1="47.5469" y1="117.896" x2="167.864"
            y2="117.896" gradientUnits="userSpaceOnUse">
            <stop stop-color="#98E976" />
            <stop offset="1" stop-color="#76E9C3" />
        </linearGradient>
        <linearGradient id="paint7_linear_2161_21" x1="133.473" y1="107.851" x2="158.534"
            y2="107.851" gradientUnits="userSpaceOnUse">
            <stop stop-color="#98E976" />
            <stop offset="1" stop-color="#76E9C3" />
        </linearGradient>
        <linearGradient id="paint8_linear_2161_21" x1="47.5469" y1="117.896" x2="167.864"
            y2="117.896" gradientUnits="userSpaceOnUse">
            <stop stop-color="#98E976" />
            <stop offset="1" stop-color="#76E9C3" />
        </linearGradient>
        <linearGradient id="paint9_linear_2161_21" x1="128.545" y1="121.118" x2="154.491"
            y2="121.118" gradientUnits="userSpaceOnUse">
            <stop stop-color="#98E976" />
            <stop offset="1" stop-color="#76E9C3" />
        </linearGradient>
        <linearGradient id="paint10_linear_2161_21" x1="142.95" y1="101.218" x2="162.305"
            y2="101.218" gradientUnits="userSpaceOnUse">
            <stop stop-color="#98E976" />
            <stop offset="1" stop-color="#76E9C3" />
        </linearGradient>
    </defs>
</svg>